<?xml version="1.0" encoding="UTF-8"?>
<svg xmlns="http://www.w3.org/2000/svg" xmlns:xlink="http://www.w3.org/1999/xlink" viewBox="0 0 16 16" width="16px" height="16px">
<g id="surface39682368">
<path style=" stroke:none;fill-rule:nonzero;fill:#FFF;fill-opacity:1;" d="M 3.332031 2 C 2.605469 2 2 2.605469 2 3.332031 L 2 12.667969 C 2 13.394531 2.605469 14 3.332031 14 L 12.667969 14 C 13.394531 14 14 13.394531 14 12.667969 L 14 8 L 12.667969 8 L 12.667969 12.667969 L 3.332031 12.667969 L 3.332031 3.332031 L 8 3.332031 L 8 2 Z M 9.332031 2 L 9.332031 3.332031 L 11.722656 3.332031 L 5.527344 9.527344 L 6.472656 10.472656 L 12.667969 4.277344 L 12.667969 6.667969 L 14 6.667969 L 14 2 Z M 9.332031 2 "/>
</g>
</svg>
