<svg xmlns="http://www.w3.org/2000/svg" version="1.1" xmlns:xlink="http://www.w3.org/1999/xlink" xmlns:svgjs="http://svgjs.com/svgjs" width="36" height="36"><svg xmlns="http://www.w3.org/2000/svg" width="36" viewBox="0 0 36 36" height="36" version="1.0"><defs><clipPath id="SvgjsClipPath1000"><path d="M 2.503906 0 L 33.152344 0 L 33.152344 35.023438 L 2.503906 35.023438 Z M 2.503906 0"></path></clipPath></defs><g clip-path="url(#a)"><path fill="#707070" d="M 2.503906 8.761719 L 17.828125 0.0117188 L 33.152344 8.761719 L 33.152344 26.257812 L 17.828125 35.007812 L 2.503906 26.257812 Z M 2.503906 8.761719"></path></g><g fill="#FFF"><g><g><path d="M 5.957031 0.3125 C 4.902344 0.3125 4.007812 0.140625 3.265625 -0.207031 C 2.523438 -0.554688 1.957031 -1.035156 1.5625 -1.648438 C 1.167969 -2.261719 0.972656 -2.957031 0.972656 -3.734375 L 2.675781 -3.734375 C 2.675781 -3.351562 2.777344 -2.96875 2.976562 -2.585938 C 3.179688 -2.207031 3.523438 -1.886719 4.003906 -1.632812 C 4.484375 -1.378906 5.136719 -1.25 5.957031 -1.25 C 6.722656 -1.25 7.347656 -1.363281 7.832031 -1.589844 C 8.320312 -1.816406 8.679688 -2.109375 8.910156 -2.476562 C 9.140625 -2.839844 9.257812 -3.234375 9.257812 -3.664062 C 9.257812 -4.183594 9.03125 -4.617188 8.578125 -4.957031 C 8.128906 -5.300781 7.46875 -5.511719 6.597656 -5.59375 L 5.191406 -5.714844 C 4.070312 -5.804688 3.171875 -6.152344 2.5 -6.753906 C 1.828125 -7.359375 1.492188 -8.152344 1.492188 -9.136719 C 1.492188 -9.910156 1.683594 -10.589844 2.058594 -11.167969 C 2.433594 -11.746094 2.957031 -12.199219 3.628906 -12.53125 C 4.300781 -12.859375 5.082031 -13.023438 5.972656 -13.023438 C 6.855469 -13.023438 7.628906 -12.863281 8.300781 -12.539062 C 8.972656 -12.214844 9.496094 -11.761719 9.875 -11.175781 C 10.25 -10.589844 10.4375 -9.894531 10.4375 -9.082031 L 8.734375 -9.082031 C 8.734375 -9.488281 8.640625 -9.871094 8.449219 -10.230469 C 8.257812 -10.589844 7.960938 -10.882812 7.554688 -11.113281 C 7.148438 -11.347656 6.621094 -11.460938 5.972656 -11.460938 C 5.347656 -11.460938 4.832031 -11.351562 4.417969 -11.132812 C 4.007812 -10.914062 3.703125 -10.625 3.5 -10.273438 C 3.296875 -9.917969 3.195312 -9.539062 3.195312 -9.136719 C 3.195312 -8.671875 3.375 -8.261719 3.734375 -7.902344 C 4.09375 -7.542969 4.625 -7.335938 5.332031 -7.277344 L 6.738281 -7.15625 C 7.605469 -7.085938 8.355469 -6.902344 8.988281 -6.609375 C 9.617188 -6.3125 10.105469 -5.917969 10.445312 -5.425781 C 10.789062 -4.933594 10.957031 -4.347656 10.957031 -3.664062 C 10.957031 -2.890625 10.75 -2.199219 10.332031 -1.597656 C 9.917969 -0.996094 9.332031 -0.527344 8.578125 -0.191406 C 7.828125 0.144531 6.953125 0.3125 5.957031 0.3125 Z M 5.957031 0.3125" transform="translate(12.016 24.15)"></path></g></g></g></svg><style>@media (prefers-color-scheme: light) { :root { filter: none; } }
@media (prefers-color-scheme: dark) { :root { filter: invert(100%); } }
</style></svg>