<svg xmlns="http://www.w3.org/2000/svg" version="1.1" xmlns:xlink="http://www.w3.org/1999/xlink" xmlns:svgjs="http://svgjs.com/svgjs" width="1920" height="1080" preserveAspectRatio="none" viewBox="0 0 1920 1080"><g mask="url(&quot;#SvgjsMask1102&quot;)" fill="none"><rect width="1920" height="1080" x="0" y="0" fill="rgba(40, 40, 40, 1)"></rect><path d="M863.9 1176.47C1051.14 1099.98 902.47 574.37 1339.84 522.22 1777.21 470.07 2035.76 151.05 2291.72 144.22" stroke="rgba(54, 54, 54, 1)" stroke-width="2"></path><path d="M467.43 1108.25C650.69 1070.48 724.87 601.9 1013.76 596.67 1302.65 591.44 1286.93 731.67 1560.09 731.67 1833.26 731.67 1965.73 597.67 2106.42 596.67" stroke="rgba(54, 54, 54, 1)" stroke-width="2"></path><path d="M597.84 1117.67C880.43 1048.86 985.67 292.45 1411.99 286.63 1838.3 280.81 2007.15 604.75 2226.13 610.63" stroke="rgba(54, 54, 54, 1)" stroke-width="2"></path><path d="M117.37 1133.57C366.84 1130.35 553.69 858.61 1071.83 842.09 1589.97 825.57 1755.25 340.06 2026.29 323.69" stroke="rgba(54, 54, 54, 1)" stroke-width="2"></path><path d="M731.65 1196.18C937.88 1164.46 999.25 702.1 1379.52 670.01 1759.79 637.92 1850.96 395.16 2027.39 389.21" stroke="rgba(54, 54, 54, 1)" stroke-width="2"></path></g><defs><mask id="SvgjsMask1102"><rect width="1920" height="1080" fill="#ffffff"></rect></mask></defs></svg>