<?xml version="1.0" standalone="no"?>
<!DOCTYPE svg PUBLIC "-//W3C//DTD SVG 20010904//EN"
 "http://www.w3.org/TR/2001/REC-SVG-20010904/DTD/svg10.dtd">
<svg version="1.0" xmlns="http://www.w3.org/2000/svg"
 width="700.000000pt" height="700.000000pt" viewBox="0 0 700.000000 700.000000"
 preserveAspectRatio="xMidYMid meet">
<metadata>
Created by potrace 1.14, written by Peter Selinger 2001-2017
</metadata>
<g transform="translate(0.000000,700.000000) scale(0.100000,-0.100000)"
fill="#000000" stroke="none">
<path d="M1978 6148 l-1488 -850 0 -1703 0 -1703 1487 -848 c818 -467 1490
-848 1494 -847 12 4 2901 1653 2942 1679 l37 24 0 1698 0 1697 -1463 835
c-804 459 -1475 842 -1492 851 l-30 17 -1487 -850z m1642 -1318 c283 -30 496
-147 630 -346 53 -80 95 -194 105 -286 3 -29 8 -70 10 -90 l5 -38 -169 0 -168
0 -6 66 c-10 127 -96 256 -218 327 -26 15 -84 37 -130 48 -71 18 -102 21 -214
16 -140 -5 -204 -21 -289 -71 -100 -59 -163 -137 -197 -247 -64 -204 34 -389
241 -459 45 -15 127 -27 275 -41 115 -10 253 -26 305 -35 203 -35 362 -108
478 -218 136 -129 187 -252 185 -446 -1 -135 -26 -234 -86 -343 -164 -292
-562 -457 -1008 -418 -292 26 -499 115 -654 283 -110 119 -184 298 -185 446
l0 52 165 0 165 0 0 -33 c0 -42 25 -129 55 -187 32 -63 132 -155 207 -190 118
-55 175 -65 373 -65 202 0 256 10 383 70 212 100 317 349 223 533 -39 77 -143
153 -261 190 -88 29 -153 38 -375 57 -104 9 -229 25 -276 35 -209 45 -370 149
-469 301 -59 91 -82 172 -87 311 -6 133 11 232 57 335 142 313 507 487 930
443z"/>
</g>
</svg>
