<?xml version="1.0" standalone="no"?>
<!DOCTYPE svg PUBLIC "-//W3C//DTD SVG 20010904//EN"
 "http://www.w3.org/TR/2001/REC-SVG-20010904/DTD/svg10.dtd">
<svg version="1.0" xmlns="http://www.w3.org/2000/svg"
 width="700.000000pt" height="700.000000pt" viewBox="0 0 700.000000 700.000000"
 preserveAspectRatio="xMidYMid meet">
<metadata>
Created by potrace 1.14, written by Peter Selinger 2001-2017
</metadata>
<g transform="translate(0.000000,700.000000) scale(0.100000,-0.100000)"
fill="#000000" stroke="none">
<path d="M3317 6575 c-149 -28 -295 -91 -417 -180 -91 -66 -2245 -2222 -2304
-2306 -64 -93 -131 -239 -158 -345 -33 -134 -31 -342 5 -478 34 -125 91 -244
166 -343 86 -112 2237 -2258 2320 -2313 85 -57 207 -112 311 -141 73 -20 107
-24 245 -23 134 0 174 3 245 22 117 31 273 109 361 181 122 97 2250 2236 2299
2310 59 88 114 210 141 311 20 72 23 110 23 245 0 135 -3 173 -23 245 -27 101
-82 223 -141 311 -55 83 -2201 2234 -2313 2320 -162 122 -349 187 -562 195
-80 2 -146 -1 -198 -11z m336 -1820 c101 -8 231 -46 328 -96 215 -112 347
-299 366 -516 l6 -73 -225 0 -226 0 -4 53 c-8 103 -81 203 -183 252 -147 71
-391 49 -499 -46 -112 -98 -126 -240 -34 -344 55 -63 175 -119 446 -210 389
-130 564 -242 660 -423 67 -125 90 -301 57 -440 -54 -228 -252 -393 -550 -458
-108 -24 -360 -29 -477 -10 -110 18 -240 57 -313 93 -237 119 -395 347 -395
571 l0 57 219 -3 219 -3 7 -56 c24 -197 135 -293 372 -324 92 -11 198 -4 285
21 62 18 128 71 161 129 26 46 30 64 30 125 0 90 -24 146 -86 203 -66 61 -141
95 -391 177 -430 143 -614 259 -701 440 -42 90 -55 153 -55 269 1 333 298 584
730 616 58 4 121 6 140 5 19 -2 70 -6 113 -9z"/>
</g>
</svg>
