<svg width="50" height="50" viewBox="0 0 71 71" fill="none" xmlns="http://www.w3.org/2000/svg">
<path d="M7.07107 42.4264C3.16582 38.5212 3.16583 32.1895 7.07107 28.2843L28.2843 7.07108C32.1895 3.16583 38.5212 3.16583 42.4264 7.07108L63.6396 28.2843C67.5449 32.1895 67.5449 38.5212 63.6396 42.4264L42.4264 63.6396C38.5212 67.5449 32.1895 67.5449 28.2843 63.6396L7.07107 42.4264Z" fill="url(#paint0_linear_2_6)"/>
<path d="M35.7051 42.8711H35.7402C36.9824 42.8711 37.9375 42.6191 38.6055 42.1152C39.2852 41.5996 39.625 40.9023 39.625 40.0234C39.625 39.1328 39.3145 38.4238 38.6934 37.8965C38.084 37.3574 36.9824 36.8477 35.3887 36.3672C32.4941 35.5352 30.3789 34.5742 29.043 33.4844C27.7188 32.3828 27.0566 30.9062 27.0566 29.0547C27.0566 27.1914 27.8594 25.6621 29.4648 24.4668C31.0703 23.2715 33.127 22.6738 35.6348 22.6738C38.1543 22.6738 40.2109 23.3418 41.8047 24.6777C43.3984 26.002 44.166 27.666 44.1074 29.6699L44.0898 29.7578H39.6074C39.6074 28.668 39.2441 27.8008 38.5176 27.1562C37.8027 26.5117 36.8242 26.1895 35.582 26.1895C34.3398 26.1895 33.373 26.459 32.6816 26.998C32.002 27.5254 31.6621 28.2051 31.6621 29.0371C31.6621 29.8574 32.0078 30.5195 32.6992 31.0234C33.4023 31.5156 34.668 32.0488 36.4961 32.623C39.1094 33.3496 41.0488 34.2988 42.3145 35.4707C43.5918 36.6309 44.2305 38.166 44.2305 40.0762C44.2305 41.9863 43.457 43.5156 41.9102 44.6641C40.375 45.8008 38.3125 46.3691 35.7227 46.3691C34.0234 46.3691 32.4707 46.0879 31.0645 45.5254C29.6582 44.9512 28.5273 44.0957 27.6719 42.959C26.8164 41.8223 26.4004 40.5039 26.4238 39.0039L26.459 38.8984H30.9414C30.9414 41.5469 32.5293 42.8711 35.7051 42.8711Z" fill="white"/>
<defs>
<linearGradient id="paint0_linear_2_6" x1="17.6777" y1="17.6777" x2="53.033" y2="53.033" gradientUnits="userSpaceOnUse">
<stop stop-color="#FEAC5E"/>
<stop offset="0.503125" stop-color="#C779D0"/>
<stop offset="1" stop-color="#4BC0C8"/>
</linearGradient>
</defs>
</svg>
